<?xml version="1.0" encoding="utf-8"?>
<!-- Generator: Adobe Illustrator 24.3.0, SVG Export Plug-In . SVG Version: 6.00 Build 0)  -->
<svg version="1.1" id="Layer_1" xmlns="http://www.w3.org/2000/svg" xmlns:xlink="http://www.w3.org/1999/xlink" x="0px" y="0px"
	 viewBox="0 0 49.6 30.6" style="enable-background:new 0 0 49.6 30.6;" xml:space="preserve">
<style type="text/css">
	.st0{fill:url(#SVGID_1_);}
	.st1{fill:url(#SVGID_2_);}
	.st2{fill:url(#SVGID_3_);}
</style>
<linearGradient id="SVGID_1_" gradientUnits="userSpaceOnUse" x1="8.1751" y1="-4.7115" x2="49.5349" y2="-4.7115" gradientTransform="matrix(1 0 0 -1 -4.000000e-02 21.64)">
	<stop  offset="1.331947e-07" style="stop-color:#B72F4A"/>
	<stop  offset="1" style="stop-color:#8A2450"/>
</linearGradient>
<path class="st0" d="M49.5,30.6h-1.8c-11.7,0-23.4,0-35.1,0c-1.2,0-1.9-0.3-2.3-1.6c-0.6-1.9-1.3-3.8-2-5.7c-0.4-1-0.2-1.4,1-1.4
	c12,0,24,0,36,0c0.6,0,1.2-0.1,1.5,0.7C47.6,25.3,48.5,27.9,49.5,30.6z"/>
<linearGradient id="SVGID_2_" gradientUnits="userSpaceOnUse" x1="0" y1="17.2993" x2="41.4231" y2="17.2993" gradientTransform="matrix(1 0 0 -1 -4.000000e-02 21.64)">
	<stop  offset="2.663895e-07" style="stop-color:#BD314A"/>
	<stop  offset="1" style="stop-color:#9A275C"/>
</linearGradient>
<path class="st1" d="M0,0c12.3,0,24.5,0,36.8,0c1.4,0,2,0.4,2.4,1.7c0.6,1.9,1.3,3.8,2,5.7c0.3,0.8,0.4,1.3-0.8,1.3
	c-12.1,0-24.2,0-36.3,0C3.4,8.7,2.7,8.2,2.6,7.5C1.8,5.1,0.9,2.8,0,0.4V0z"/>
<linearGradient id="SVGID_3_" gradientUnits="userSpaceOnUse" x1="4.3503" y1="6.2871" x2="45.71" y2="6.2871" gradientTransform="matrix(1 0 0 -1 -4.000000e-02 21.64)">
	<stop  offset="1.331947e-07" style="stop-color:#B72F4A"/>
	<stop  offset="1" style="stop-color:#8A2450"/>
</linearGradient>
<path class="st2" d="M45.7,19.6h-1.8c-11.7,0-23.4,0-35.1,0c-1.2,0-1.9-0.3-2.3-1.6c-0.6-1.9-1.3-3.8-2-5.7c-0.4-1-0.2-1.4,1-1.4
	c12,0,24,0,36,0c0.6,0,1.2-0.1,1.5,0.7C43.7,14.3,44.7,16.9,45.7,19.6z"/>
</svg>
